<?xml version="1.0" standalone="no"?>
<!DOCTYPE svg PUBLIC "-//W3C//DTD SVG 20010904//EN"
 "http://www.w3.org/TR/2001/REC-SVG-20010904/DTD/svg10.dtd">
<svg version="1.0" xmlns="http://www.w3.org/2000/svg"
 width="100" height="100" viewBox="0 0 100 100"
 preserveAspectRatio="xMidYMid meet">

<g transform="translate(0.000000,100.000000) scale(0.100000,-0.100000)"
fill="#02bf8c" stroke="none">
<path d="M150 897 c8 -8 77 -65 153 -127 l139 -113 -56 -56 c-51 -51 -66 -59
-162 -91 l-106 -35 -28 -65 -29 -65 151 -3 150 -3 -7 -52 c-3 -28 -8 -68 -11
-88 -5 -33 -2 -39 34 -68 37 -29 45 -31 122 -31 77 0 85 2 122 31 43 35 42 29
22 171 l-6 37 150 3 150 3 -27 65 -27 65 -107 35 c-93 31 -113 41 -157 85 -27
27 -50 54 -50 61 0 6 65 65 145 129 80 65 143 120 141 122 -1 2 -60 -17 -130
-42 -118 -42 -134 -45 -226 -45 -92 0 -108 3 -226 45 -139 50 -145 51 -124 32z
m270 -488 l22 -30 -38 7 c-55 10 -60 15 -33 35 13 10 25 19 26 19 1 0 11 -14
23 -31z m223 -9 c-4 -4 -25 -11 -47 -14 l-38 -7 21 30 c21 30 23 30 47 14 14
-9 21 -19 17 -23z m-85 -162 l3 -38 -60 0 -61 0 0 33 c0 19 3 37 7 41 4 4 30
6 58 4 l50 -3 3 -37z"/>
<path d="M97 873 c-3 -5 -12 -33 -20 -63 -16 -54 -15 -58 13 -168 15 -63 30
-115 32 -117 2 -2 43 8 90 23 75 23 92 33 124 70 20 24 33 47 28 51 -29 26
-241 198 -251 204 -6 4 -14 4 -16 0z"/>
<path d="M764 774 c-71 -59 -131 -108 -133 -110 -2 -2 12 -22 31 -45 30 -35
47 -45 123 -70 49 -15 91 -26 93 -24 2 2 17 56 33 120 29 115 30 118 13 169
-9 28 -20 54 -23 59 -4 4 -65 -41 -137 -99z"/>
<path d="M92 210 c16 -49 33 -90 36 -90 16 1 163 38 168 42 2 3 7 35 11 72 l6
66 -126 0 -126 0 31 -90z"/>
<path d="M693 234 c4 -37 9 -69 11 -71 6 -6 170 -43 173 -39 2 2 16 42 32 89
l30 87 -126 0 -126 0 6 -66z"/>
</g>
</svg>
